/* XPM */
static char * chitwanix icon_xpm[] = {
"64 64 433 2",
"  	c None",
". 	c #481495",
"+ 	c #6C1272",
"@ 	c #771268",
"# 	c #781167",
"$ 	c #74126A",
"% 	c #591384",
"& 	c #2C14B0",
"* 	c #5E1482",
"= 	c #940F4C",
"- 	c #D30C10",
"; 	c #DD0C06",
"> 	c #DC0C07",
", 	c #B20E30",
"' 	c #73126C",
") 	c #701472",
"! 	c #A5123E",
"~ 	c #B30F2F",
"{ 	c #B60E2A",
"] 	c #572A96",
"^ 	c #8F1052",
"/ 	c #D20D11",
"( 	c #DB0C08",
"_ 	c #D70C0C",
": 	c #D71111",
"< 	c #D60C0C",
"[ 	c #D70D0D",
"} 	c #D70F0F",
"| 	c #D70E0E",
"1 	c #D90C0A",
"2 	c #B10E30",
"3 	c #791E57",
"4 	c #B40F27",
"5 	c #AD1033",
"6 	c #91134F",
"7 	c #3817A3",
"8 	c #3616A9",
"9 	c #D60D0D",
"0 	c #73146E",
"a 	c #C70D1B",
"b 	c #D80C0B",
"c 	c #861059",
"d 	c #C00F19",
"e 	c #D60C0D",
"f 	c #771167",
"g 	c #6A1478",
"h 	c #D30D10",
"i 	c #DA0C09",
"j 	c #5E1582",
"k 	c #900F4F",
"l 	c #D10D11",
"m 	c #1A1BC6",
"n 	c #B10F2C",
"o 	c #DE0C06",
"p 	c #A10F40",
"q 	c #7D1263",
"r 	c #D60D0C",
"s 	c #451EA2",
"t 	c #990F47",
"u 	c #D90C0B",
"v 	c #DD0C07",
"w 	c #2D16B0",
"x 	c #941049",
"y 	c #DB0C09",
"z 	c #B70E2B",
"A 	c #2F16AD",
"B 	c #5B1587",
"C 	c #DE0C05",
"D 	c #D70D0C",
"E 	c #D90D0A",
"F 	c #1B1BC7",
"G 	c #B60E2B",
"H 	c #D70C0D",
"I 	c #651279",
"J 	c #87135A",
"K 	c #BE0E24",
"L 	c #611681",
"M 	c #1719C6",
"N 	c #D70C0B",
"O 	c #CB0D18",
"P 	c #B00E31",
"Q 	c #AE0E34",
"R 	c #AA0F37",
"S 	c #B80E2A",
"T 	c #D90D0B",
"U 	c #76136A",
"V 	c #DC0C08",
"W 	c #A3103D",
"X 	c #DA0C0A",
"Y 	c #A70E39",
"Z 	c #46159A",
"` 	c #E00C03",
" .	c #BD0E25",
"..	c #81105E",
"+.	c #591486",
"@.	c #6C1173",
"#.	c #A30F3D",
"$.	c #BA0E28",
"%.	c #41149B",
"&.	c #6D1371",
"*.	c #801260",
"=.	c #6F126E",
"-.	c #D40D0F",
";.	c #8F1050",
">.	c #491394",
",.	c #74116B",
"'.	c #BB0D27",
").	c #D40C0F",
"!.	c #3116AC",
"~.	c #C90D19",
"{.	c #D80C0C",
"].	c #CA0E18",
"^.	c #C80D1B",
"/.	c #691478",
"(.	c #B40E2D",
"_.	c #D50D0D",
":.	c #881056",
"<.	c #7F1161",
"[.	c #C50D1D",
"}.	c #A7103B",
"|.	c #D00D13",
"1.	c #D50D0C",
"2.	c #D40D0D",
"3.	c #9F1245",
"4.	c #5E1684",
"5.	c #D20E0D",
"6.	c #CC0F0E",
"7.	c #D50D0E",
"8.	c #7D1162",
"9.	c #521E96",
"0.	c #D30D0D",
"a.	c #57188D",
"b.	c #A71038",
"c.	c #C2110F",
"d.	c #A31543",
"e.	c #63208B",
"f.	c #AB0E36",
"g.	c #461898",
"h.	c #DF0C05",
"i.	c #AA143C",
"j.	c #4E1894",
"k.	c #DA0C08",
"l.	c #3F1CA6",
"m.	c #941048",
"n.	c #A11140",
"o.	c #62268E",
"p.	c #2827C5",
"q.	c #A60E3B",
"r.	c #95124C",
"s.	c #601881",
"t.	c #CD0D15",
"u.	c #5C1785",
"v.	c #612993",
"w.	c #3E1CA8",
"x.	c #D10C12",
"y.	c #87125B",
"z.	c #2021C8",
"A.	c #AE0E33",
"B.	c #D40C0E",
"C.	c #611680",
"D.	c #B00F2E",
"E.	c #E10B02",
"F.	c #61147F",
"G.	c #481B9D",
"H.	c #9D1144",
"I.	c #9A0F47",
"J.	c #960F4A",
"K.	c #2E1CB5",
"L.	c #AD0F35",
"M.	c #B50F2D",
"N.	c #941246",
"O.	c #5F1682",
"P.	c #47189B",
"Q.	c #CC0D15",
"R.	c #4F1C98",
"S.	c #AD0F34",
"T.	c #45189D",
"U.	c #831461",
"V.	c #BB0D26",
"W.	c #AD153A",
"X.	c #681C71",
"Y.	c #D20C10",
"Z.	c #A3103F",
"`.	c #521790",
" +	c #75146E",
".+	c #8A1459",
"++	c #7C1467",
"@+	c #CF0D15",
"#+	c #691578",
"$+	c #2D27C2",
"%+	c #621983",
"&+	c #A60E3A",
"*+	c #961852",
"=+	c #CC0D12",
"-+	c #7F1060",
";+	c #5128A1",
">+	c #331EB3",
",+	c #A70F3B",
"'+	c #A6123E",
")+	c #911150",
"!+	c #A2103F",
"~+	c #68157B",
"{+	c #AA1038",
"]+	c #A11142",
"^+	c #901151",
"/+	c #641D84",
"(+	c #CF0D14",
"_+	c #B40E2E",
":+	c #A01142",
"<+	c #D30B0F",
"[+	c #2228CB",
"}+	c #781A6C",
"|+	c #991149",
"1+	c #741870",
"2+	c #B40C2B",
"3+	c #AE0F34",
"4+	c #7B1367",
"5+	c #BC0E26",
"6+	c #54299E",
"7+	c #A5113E",
"8+	c #5A1888",
"9+	c #662287",
"0+	c #AC1036",
"a+	c #9E1245",
"b+	c #C30D1F",
"c+	c #AC153C",
"d+	c #672589",
"e+	c #74146D",
"f+	c #811361",
"g+	c #A11847",
"h+	c #4A1797",
"i+	c #98114A",
"j+	c #5D2390",
"k+	c #CA0D18",
"l+	c #B20F30",
"m+	c #B50E2C",
"n+	c #781469",
"o+	c #5F1482",
"p+	c #681478",
"q+	c #D30C0F",
"r+	c #92114F",
"s+	c #AD0E34",
"t+	c #711974",
"u+	c #66167C",
"v+	c #821360",
"w+	c #5F1786",
"x+	c #9D0F44",
"y+	c #A91039",
"z+	c #8B1156",
"A+	c #E10C03",
"B+	c #3317AC",
"C+	c #65137B",
"D+	c #881058",
"E+	c #87115A",
"F+	c #CE0D15",
"G+	c #4F1A96",
"H+	c #93104E",
"I+	c #8E1051",
"J+	c #4C1694",
"K+	c #CC0D17",
"L+	c #65157D",
"M+	c #8F1151",
"N+	c #3019B2",
"O+	c #CD0D16",
"P+	c #D40D0E",
"Q+	c #4118A0",
"R+	c #C60D1C",
"S+	c #97104A",
"T+	c #181AC8",
"U+	c #DF0C04",
"V+	c #CE0D14",
"W+	c #A30E3C",
"X+	c #87145C",
"Y+	c #72126E",
"Z+	c #6B1375",
"`+	c #681276",
" @	c #7E1465",
".@	c #9D1044",
"+@	c #BD0D24",
"@@	c #60137F",
"#@	c #4B1796",
"$@	c #BB0F27",
"%@	c #57178C",
"&@	c #901554",
"*@	c #701673",
"=@	c #84105B",
"-@	c #DE0A03",
";@	c #D40000",
">@	c #D50606",
",@	c #D60808",
"'@	c #D50404",
")@	c #D60303",
"!@	c #D70000",
"~@	c #D90401",
"{@	c #D70301",
"]@	c #CE0910",
"^@	c #BE0318",
"/@	c #BB0B24",
"(@	c #C60716",
"_@	c #D40505",
":@	c #D90400",
"<@	c #D80805",
"[@	c #D70504",
"}@	c #D60909",
"|@	c #D50202",
"1@	c #D70706",
"2@	c #2B17B3",
"3@	c #69187D",
"4@	c #7D186A",
"5@	c #A70E3A",
"6@	c #891259",
"7@	c #62157E",
"8@	c #DC2E2E",
"9@	c #F6CBCB",
"0@	c #E56161",
"a@	c #E24E4E",
"b@	c #E97C7C",
"c@	c #EC8A8A",
"d@	c #F4BEBE",
"e@	c #E87676",
"f@	c #EC8989",
"g@	c #DF3E3E",
"h@	c #EE9E9E",
"i@	c #DC2C2C",
"j@	c #E45D5D",
"k@	c #E87878",
"l@	c #EB8484",
"m@	c #E14C4C",
"n@	c #E77474",
"o@	c #F2B1B1",
"p@	c #E04242",
"q@	c #EF9F9F",
"r@	c #E35858",
"s@	c #AC1037",
"t@	c #E25454",
"u@	c #DD3636",
"v@	c #EA7F7F",
"w@	c #EB8383",
"x@	c #F0A6A6",
"y@	c #DB2929",
"z@	c #E76C6C",
"A@	c #EB8989",
"B@	c #F5C3C3",
"C@	c #F6CACA",
"D@	c #E66464",
"E@	c #ED9696",
"F@	c #EE9595",
"G@	c #ED9797",
"H@	c #E04646",
"I@	c #DC2B2B",
"J@	c #E35757",
"K@	c #EF9E9E",
"L@	c #F0A4A4",
"M@	c #D91B1B",
"N@	c #741872",
"O@	c #BF0F24",
"P@	c #DA2121",
"Q@	c #E97A7A",
"R@	c #F0A5A5",
"S@	c #DA2020",
"T@	c #EC8E8E",
"U@	c #EFA2A2",
"V@	c #EE9A9A",
"W@	c #EE9B9B",
"X@	c #EC8D8D",
"Y@	c #F0A1A1",
"Z@	c #DC2929",
"`@	c #DF4141",
" #	c #F0A3A3",
".#	c #E56565",
"+#	c #E66767",
"@#	c #76166E",
"##	c #771168",
"$#	c #E24F4F",
"%#	c #E97E7E",
"&#	c #E55D5D",
"*#	c #ED9494",
"=#	c #E66969",
"-#	c #F4BDBD",
";#	c #EB8888",
">#	c #F2B3B3",
",#	c #EA7E7E",
"'#	c #EF9C9C",
")#	c #E87575",
"!#	c #DA2222",
"~#	c #EC8B8B",
"{#	c #E45C5C",
"]#	c #AD0E35",
"^#	c #72106D",
"/#	c #BF162D",
"(#	c #E96460",
"_#	c #DC2D2D",
":#	c #DB2727",
"<#	c #DF3C3C",
"[#	c #D81313",
"}#	c #DB2828",
"|#	c #DD3131",
"1#	c #DA1F1F",
"2#	c #E04747",
"3#	c #DF4040",
"4#	c #DE3838",
"5#	c #DF3F3F",
"6#	c #D91F1F",
"7#	c #D60A0A",
"8#	c #E35656",
"9#	c #D81717",
"0#	c #E65B59",
"a#	c #D7292D",
"b#	c #9F0F41",
"c#	c #890C52",
"d#	c #DB0B08",
"e#	c #DC0B06",
"f#	c #D70A0A",
"g#	c #D60B0B",
"h#	c #D90907",
"i#	c #DE0B04",
"j#	c #B60B28",
"k#	c #640F78",
"l#	c #2B14B0",
"m#	c #C70D1C",
"n#	c #A80F39",
"o#	c #5C1281",
"p#	c #781166",
"q#	c #930F4D",
"r#	c #A30F3F",
"s#	c #A00F40",
"t#	c #9E0F43",
"u#	c #9F0F42",
"v#	c #9F1042",
"w#	c #A20F3F",
"x#	c #9D0F43",
"y#	c #86105A",
"z#	c #63117B",
"                                                                                                                                ",
"                                                                                                                                ",
"                                                                                                                                ",
"                                                                                                                                ",
"                                                                                                                                ",
"                                                                                                                                ",
"                                                                                                                                ",
"                                                                                                                                ",
"                                                                                                                                ",
"                                                                                                                                ",
"                                                                                                                                ",
"                                                          . + @ # $ % &                                                         ",
"                                                    * = - ; ; ; ; ; ; > , '                                                     ",
"                                      ) ! ~ { ]   ^ / ( _ : < [ _ [ } | 1 ( 2     3 4 5 6 7                                     ",
"                                  8 2 _ 9 _ ; 0   a _ 9 < | < [ _ [ _ [ < 9 b c   d b _ e 9 f                                   ",
"                                g h i 9 [ [ ; j k i [ [ [ _ [ [ [ [ [ _ [ [ _ l m n 1 [ 9 e o p                                 ",
"                              q l _ 9 [ [ r ; s t u [ [ [ [ [ [ [ [ [ [ [ [ _ v w x y [ [ [ 9 1 z A                             ",
"                            B C D [ [ [ [ _ E F G b [ [ 9 _ _ H 9 _ _ _ 9 [ 9 ; I J ( [ [ [ [ 9 b K                             ",
"                          L 1 9 9 [ [ [ [ _ l M N _ _ b ( O P Q R P S T 1 _ 9 > c U V 9 [ [ [ [ 9 b W                           ",
"                          z _ 9 [ [ [ [ [ X Y Z ` V ;  ...+.          @.#.b v ( $.%.> D [ [ [ [ [ _ 9 &.                        ",
"                        U ( 9 9 9 [ [ [ 9 ( *.=.-.;.>.                      ,.'.).!.~._ [ [ [ _ 9 _ {.].                        ",
"                        ^.b 9 9 9 [ [ [ 9 ( /.                                      (._ [ [ [ _ _._ 9 o :.                      ",
"                      <.o H 9 [ [ [ [ [ _ [.                                        }.D [ [ [ 9 _ 9 < _ |.                      ",
"                      ].1.2._ [ [ [ [ 9 e 3.                                        4.h _ [ [ [ [ _ 5.6.7.8.                    ",
"                    9.7.2.0._ [ [ [ [ 9 9 a.                                          b.i 9 [ [ [ H _ c.e d.                    ",
"                    e.-.r r H [ [ [ 9 X f.                                            g.h.< [ [ [ 9 _ 0.< i.                    ",
"                    j.-.9 9 [ [ [ 9 _ k.l.                                              m.i _ [ [ [ 9 [ 9 n.                    ",
"                  o.p.q.v 9 [ [ [ 9 i r.                                                s.t._ [ [ [ 9 _ / u.v.                  ",
"                w.x.y.z.A.( 9 [ [ _ B.C.                                                  D.D [ [ 9 D E.F.G.[.H.                ",
"                I.y h.J.K.L.9 _ _ _ M.                                                    N.9 9 _ _ |.O.P.Q.b h R.              ",
"                / 9 9 > S.T.U.V.> i W.                                                    X.D v Y.Z.`. +_ b 9 7..+              ",
"              ++h 9 [ 9 _ @+#+$+%+&+*+                                                      =+-+;+>+,+9 _ 9 [ _ '+              ",
"              )+7.[ [ [ 9 9 > !+                                                                ~+7.1 9 [ [ [ _ {+              ",
"              ]+9 [ [ [ [ [ 9 > ^+                                                            /+(+_ 9 [ [ [ [ _ _+              ",
"              :+9 [ [ [ [ [ [ _ <+[+                                                          }+( 9 [ [ [ [ [ _ (.              ",
"              |+9 [ [ [ [ [ [ 9 C 1+                                                          2+b [ [ [ [ [ [ _ 3+              ",
"              4+h [ [ [ [ [ [ [ b 5+                                                        6+E.9 [ [ [ [ [ [ _ 7+              ",
"              8+/ 9 [ [ [ [ [ [ D 7.9+                                                      0+X 9 [ [ [ [ [ [ 9 a+              ",
"                b+{.[ [ [ [ [ [ [ e c+                                                    d+b 9 [ [ [ [ [ [ 9 h e+              ",
"                f+> [ [ [ [ [ [ [ _ a                                                     g+e [ [ [ [ [ [ [ D |.                ",
"                h+h.9 [ [ [ [ [ [ _ 1 i+                                                j+k+_ [ [ [ [ [ [ [ 1 l+                ",
"                  m+1 9 [ [ [ [ [ [ 9 v n+                                              Y i 9 [ [ [ [ [ [ _ > o+                ",
"                  p+( _ [ [ [ [ [ [ 9 D q+                                            r+h.9 [ [ [ [ [ [ 9 1 s+                  ",
"                    (._ [ [ [ [ [ [ [ 9 -.t+                                          5+b [ [ [ [ [ [ [ D i u+                  ",
"                    v+_ 9 9 [ [ [ [ [ 9 -.w+                                          x+y [ [ [ [ [ [ 9 _ y+                    ",
"                      z+A+9 [ [ [ [ [ 9 b B+y.C+                                  D+  E+o 9 [ [ [ [ 9 b F+G+                    ",
"                        H+i D [ [ [ 9 > I+J+K+7.L.L+                          M+/ 1 ;.N+O+_ 9 [ [ 9 _ P+Q+                      ",
"                          |+7.1 i b R+S+T+P 1 _ X U+V+W+X+Y+Z+      `+ @.@+@( ( _ _ i @@#@G l k.1 i $@%@                        ",
"                            #+Y &@*@    =@-@;@>@,@'@)@!@~@{@]@^@/@(@_@:@<@[@_ ;@}@|@1@|.2@  3@4@5@6@                            ",
"                                      7@1 8@9@0@a@b@c@d@e@f@g@h@i@j@k@l@m@n@} o@p@q@r@_ s@                                      ",
"                                       .e t@u@v@w@x@y@z@A@B@0@C@D@E@q@F@G@H@I@J@K@L@M@< _ N@                                    ",
"                                      O@9 a@P@Q@q@R@S@0@T@U@E@R@V@W@q@X@Y@Z@i@`@ #.#+#[ _ @#                                    ",
"                                      ##e $#%#b@&#Y@P@0@*#=#-#;#>#,#V@'#b@)#!#~#c@Q@{#[ ]#                                      ",
"                                        ^#/#(#_#:#<#[#}#|#1#2#< 3#:#4#5#6#5#7#8#9#0#a#b#                                        ",
"                                            c#d#e#f#< g#g#< 7#< 7#g#g#7#< 7#D h#i#j#k#                                          ",
"                                              l#c m#/ h 7.[ 9 9 9 9 _ 9 -./ |.n#o#                                              ",
"                                                      p#q#r#s#t#u#v#w#x#y#z#                                                    ",
"                                                                                                                                ",
"                                                                                                                                ",
"                                                                                                                                ",
"                                                                                                                                ",
"                                                                                                                                ",
"                                                                                                                                ",
"                                                                                                                                "};
